<svg xmlns="http://www.w3.org/2000/svg" width="804" height="702"><path fill="#137be2" d="M572 226q.198 17.685.391 35.37l.182 16.432c.53 47.183.53 47.183.427 69.198l-2.725.774q-3.559 1.012-7.115 2.035a980 980 0 0 1-8.101 2.289c-8.306 2.34-16.446 5.023-24.559 7.964l-2.75.996c-23.722 8.73-46.06 20.585-66.947 34.73-2.687 1.806-5.405 3.566-8.115 5.337-8.981 6-17.117 13.022-25.325 20.02a590 590 0 0 1-6.695 5.617c-9.319 7.728-17.982 15.902-25.848 25.136-3.071 3.546-6.291 6.958-9.488 10.391-2.387 2.775-4.31 5.662-6.332 8.711-2.46 3.169-5.022 6.255-7.578 9.346-3.281 4.03-6.144 7.967-8.422 12.654l1 3c4.967-1.515 8.058-4.457 11.813-7.875 5.796-5.15 11.748-9.933 17.99-14.528a486 486 0 0 0 12.966-9.912c7.874-6.212 15.877-12.03 24.314-17.452a997 997 0 0 0 6.065-3.94 1573 1573 0 0 1 10.75-6.945q2.056-1.318 4.105-2.645a296 296 0 0 1 26.352-15.217c3.62-1.853 7.129-3.75 10.547-5.955 4.691-2.987 9.636-5.348 14.66-7.719.993-.47 1.985-.942 3.007-1.427 39.402-18.574 79.966-33.047 122.931-40.635l2.134-.378c17.14-3.017 33.873-4.539 51.366-5.372v203h-26c-6.426.168-12.833.359-19.25.688-.818.04-1.637.082-2.48.125-49.92 2.63-100.626 16.716-144.332 41.116-2.824 1.56-5.698 3.023-8.563 4.509-7.401 3.997-14.392 8.615-21.4 13.256a901 901 0 0 1-5.303 3.474c-7.113 4.664-13.918 9.665-20.672 14.832l-3.152 2.371c-7.149 5.4-13.995 11.086-20.754 16.965-7.68 6.631-7.68 6.631-10.469 6.851-3.302-1.493-5.154-3.553-7.625-6.167-7.136-7.206-15.872-13.001-24-19.02l-2.574-1.926C353.753 626.7 340.496 618.134 327 610q-1.785-1.102-3.57-2.207c-22.2-13.663-46.099-23.25-70.674-31.77-3.297-1.224-6.523-2.637-9.756-4.023v-39c4.371-.874 7.828-1.09 12.242-1.027l4.23.037q3.301.036 6.603.086c2.139.03 4.278.048 6.417.064l3.855.051c4.278-.113 4.278-.113 10.653-2.211l1-58c4.288-1.072 8.284-1.208 12.668-1.281l2.532-.056c3.57-.079 7.14-.147 10.709-.215q3.91-.08 7.821-.167l2.466-.04c3.707.264 3.707.264 6.804-1.241.123-1.871.178-3.747.205-5.621l.06-3.64.051-3.962.063-4.031q.082-5.315.153-10.628.077-5.42.161-10.839.162-10.64.307-21.279l3.716-.028c4.546-.04 9.09-.106 13.636-.18q2.952-.042 5.905-.063a774 774 0 0 0 8.481-.12l2.671-.003 2.487-.06 2.187-.027c2.067-.393 2.067-.393 3.646-2.198 1.562-2.853 1.667-4.76 1.703-8.008l.06-3.457.02-3.715.054-3.817q.066-5.01.104-10.022c.03-3.412.076-6.824.121-10.236q.126-10.032.209-20.066l3.64-.06c4.447-.076 8.893-.165 13.34-.257q2.89-.058 5.78-.105c2.765-.045 5.53-.103 8.295-.164l2.62-.035c4.643.094 4.643.094 8.325-2.379.326-2.77.326-2.77.303-6.054l.05-3.853.026-4.183q.024-2.138.051-4.274c.046-3.756.08-7.511.113-11.266.051-6.008.117-12.016.188-18.024q.033-3.15.055-6.3l.04-3.862.03-3.407C420 280 420 280 421 277a71 71 0 0 1 7.086-2.672l2.195-.737c2.362-.791 4.728-1.566 7.094-2.341a3906 3906 0 0 0 7.261-2.43q2.39-.803 4.783-1.601a470 470 0 0 0 19.457-6.988c4.012-1.521 8.051-2.835 12.16-4.075 6.884-2.091 13.65-4.473 20.42-6.901 14.766-5.292 29.605-10.336 44.501-15.245l4.29-1.416 2.05-.676a330 330 0 0 0 14.586-5.236C569 226 569 226 572 226"/><path fill="#e2eefa" d="m401.5 68.75 3.906-.016c3.407.252 5.524.88 8.594 2.266q2.363.585 4.75 1.063c4.142.83 4.142.83 5.25 1.937l3.438.438C431 75 431 75 433 77c1.956.827 1.956.827 4.188 1.5l2.449.777c4.618 1.412 9.194 2.697 13.926 3.66 3.841.822 6.947 2.239 10.437 4.063q2.488.56 5 1c2.867.896 5.658 1.86 8.438 3 3.135 1.224 6.324 2.082 9.562 3q2.19.743 4.375 1.5c3.835 1.302 7.665 2.203 11.625 3.035 2.463.573 4.692 1.44 7 2.465a74 74 0 0 0 8.5 3c2.951.843 5.658 1.863 8.5 3q3.49 1.034 7 2l7 2 3.375.938c5.156 1.51 10.307 3.069 15.25 5.187 2.508 1.026 2.508 1.026 5.875 1.313 3.606.58 5.48 1.604 8.5 3.562q1.992.534 4 1 2.163.7 4.313 1.438c2.825.957 5.622 1.823 8.5 2.624 3.187.938 3.187.938 5.187 2 2.178 1.141 2.178 1.141 5.563 1.438C605 131 605 131 608 133q2.999.51 6 1l4 2q2.999.51 6 1 2.521.946 5 2a161 161 0 0 0 9.21 2.906 315 315 0 0 1 11.54 3.594l1.996.645c4.196 1.387 7.27 2.506 9.942 6.167 1.454 2.978 1.626 4.423 1.312 7.688-1.137 2.203-1.137 2.203-2.687 4.25l-1.512 2.078c-2.262 2.1-3.773 2.257-6.801 2.672q-2.634.717-5.25 1.5l-2.64.781c-2.07.532-2.07.532-3.11 1.719-.106 2.88-.147 5.738-.145 8.619l-.01 2.74q-.013 4.506-.013 9.012l-.01 6.237q-.009 6.546-.007 13.091c0 5.604-.014 11.208-.031 16.811q-.015 6.444-.013 12.886 0 3.1-.013 6.2c-.01 2.885-.007 5.77 0 8.656-.007.86-.012 1.721-.018 2.608-.18 4.546-.18 4.546 2.26 8.14l2.344.902C653.53 272.285 658.248 279.345 662 287l1 1c.852 8.863.566 15.844-5 23-4.468 5.155-9.587 8.684-16 11l-2 1c-2.268.124-4.54.176-6.812.188l-3.708.042c-6.763-.447-12.414-3.856-17.48-8.23-5.397-6.842-8.44-12.93-8.273-21.762 1.026-8.398 5.506-14.376 11.273-20.238l2.063-2.375c2.448-2.053 4.911-2.684 7.937-3.625 1.603-3.207 1.13-6.692 1.114-10.213v-2.573c0-2.813-.009-5.627-.016-8.44l-.005-5.844q-.006-7.699-.024-15.397-.014-7.853-.02-15.705-.016-15.414-.049-30.828c-3.26 0-5.005.144-8 1l-3.437.938c-3.418.96-3.418.96-6.063 2.062-4.298 1.719-8.783 2.809-13.25 4-3.353.862-3.353.862-6.25 3l-7 1-3 2a248 248 0 0 1-5.754 1.434c-3.088.778-6.07 1.813-9.082 2.843-3.026 1.01-6.095 1.854-9.164 2.723a186 186 0 0 0-9.937 3.5c-3.637 1.378-7.315 2.459-11.063 3.5-2.829.905-5.586 1.821-8.312 3-3.143 1.17-6.28 1.808-9.555 2.5-2.504.587-4.765 1.503-7.133 2.5l-7 2q-2.509.979-5 2c-2.625.91-5.22 1.808-7.918 2.473-5.098 1.291-10.063 3.114-14.957 5.027-4.053 1.547-8.192 2.637-12.383 3.746-3.97 1.092-7.852 2.409-11.742 3.754-5.491 1.867-11.035 3.458-16.625 5-2.891.857-5.59 1.857-8.375 3l-3.062 1c-2.844.888-2.844.888-5 2.063-2.293 1.109-4.435 1.499-6.938 1.937l-1.781.516c-2.775.605-5.38.654-8.219.672l-3.125.042c-2.912-.233-4.362-.845-6.875-2.23q-2.235-.566-4.5-1c-3.162-.606-5.664-1.475-8.5-3-2.748-1.23-5.08-2.013-8.062-2.5-2.808-.478-4.445-1.216-6.938-2.5-1.575-.47-3.153-.934-4.738-1.367-2.977-.833-5.93-1.731-8.887-2.633l-3.29-1c-2.754-.893-5.404-1.91-8.085-3a124 124 0 0 0-11.5-2.937c-4.088-.882-7.684-2.335-11.5-4.063-5.091-1.803-10.257-3.465-15.562-4.5-4.433-.91-8.431-2.432-12.438-4.5-2.984-1.37-5.341-2.047-8.625-2.5C274 209 274 209 271 207q-2.999-.51-6-1l-1.863-.941c-2.427-1.203-4.763-1.833-7.387-2.496a106 106 0 0 1-11.719-3.81c-5.111-1.896-10.404-3.304-15.656-4.753a81 81 0 0 1-7.187-2.5c-3.923-1.524-7.845-2.29-11.989-2.973C207 188 207 188 204 186c-2.966-1.4-5.349-2.048-8.625-2.5C192 183 192 183 189 181a175 175 0 0 0-4.977-1.434c-2.202-.616-4.357-1.33-6.523-2.066-3.804-1.285-7.636-2.407-11.5-3.5l-2.75-.937c-3.85-1.259-7.743-2.271-11.664-3.282-4.964-1.5-7.876-3.231-10.586-7.781-.62-3.132-.637-5.87 0-9 3.498-5.19 8.237-6.43 14-8l3.625-1.062q3.28-.912 6.563-1.813c3.3-.974 6.55-2.028 9.812-3.125 4.307-1.448 8.617-2.797 13-4 4.376-1.228 8.697-2.535 13-4l2.938-.937c3.135-1.032 3.135-1.032 6.312-2.563 3.755-1.672 7.57-2.323 11.613-2.973 2.335-.38 2.335-.38 4.137-2.527l7-1 2-2q3.495-.526 7-1a104 104 0 0 0 5-2c5.668-2.04 11.415-3.688 17.23-5.25 8.502-2.286 8.502-2.286 16.707-5.437C284 104 284 104 287 104l1.75-1.375c4.02-2.904 8.85-3.546 13.625-4.562 4.674-1.014 9.114-2.489 13.625-4.063q2.25-.753 4.5-1.5 3.36-1.116 6.715-2.25a369 369 0 0 1 20.66-6.312c3.012-.8 3.012-.8 5.188-2C355 81 355 81 357.625 80.625c3.088-.572 5.438-1.413 8.313-2.625 4.045-1.691 7.694-2.476 12.062-3 2.167-.875 2.167-.875 4-2 2.731-1.49 3.806-2 7-2l2.219-.984c3.536-1.292 6.523-1.281 10.281-1.266"/><path fill="#0b67d0" d="M572 226q.198 17.685.391 35.37l.182 16.432c.53 47.183.53 47.183.427 69.198l-2.725.774q-3.559 1.012-7.115 2.035a980 980 0 0 1-8.101 2.289c-8.306 2.34-16.446 5.023-24.559 7.964l-2.75.996c-23.722 8.73-46.06 20.585-66.947 34.73-2.687 1.806-5.405 3.566-8.115 5.337-8.981 6-17.117 13.022-25.325 20.02a590 590 0 0 1-6.695 5.617c-9.319 7.728-17.982 15.902-25.848 25.136-3.071 3.546-6.291 6.958-9.488 10.391-2.387 2.775-4.31 5.662-6.332 8.711-2.46 3.169-5.022 6.255-7.578 9.346-3.281 4.03-6.144 7.967-8.422 12.654l1 3c4.967-1.515 8.058-4.457 11.813-7.875 5.796-5.15 11.748-9.933 17.99-14.528a487 487 0 0 0 12.967-9.913c7.925-6.253 15.997-12.079 24.48-17.55 2.915-1.89 5.8-3.826 8.688-5.759L445 437l1 3c-2 2-2 2-4 2.438-2.386.437-2.386.437-4 3.562l-3 .438-3 .562c-1.183 1.866-1.183 1.866-2 4-2.603 2.351-3.421 3-7 3l-1 3c-1.708.985-1.708.985-4 2-4.432 2.23-8.384 4.689-11 9-2.088 7.062-1.339 14.834-1.184 22.11q.012 3.43.01 6.863c.003 4.994.04 9.985.098 14.978.091 8.353.072 16.702.036 25.055l-.032 8.843-.007 2.236a5462 5462 0 0 0-.009 24.83l.003 2.272.013 9.13q.016 11.77.022 23.539.015 24.072.05 48.144l2.082-1.785 2.73-2.278 2.708-2.285L416 648l3 1a3875 3875 0 0 1-6.312 5.875l-1.803 1.684-1.748 1.62-1.603 1.492c-3.82 3.31-3.82 3.31-6.784 3.391-3.49-1.348-5.208-3.353-7.75-6.042-7.136-7.206-15.872-13.001-24-19.02l-2.574-1.926C353.753 626.7 340.496 618.134 327 610q-1.785-1.102-3.57-2.207c-22.2-13.663-46.099-23.25-70.674-31.77-3.297-1.224-6.523-2.637-9.756-4.023v-39c4.371-.874 7.828-1.09 12.242-1.027l4.23.037q3.301.036 6.603.086c2.139.03 4.278.048 6.417.064l3.855.051c4.278-.113 4.278-.113 10.653-2.211l1-58c4.288-1.072 8.284-1.208 12.668-1.281l2.532-.056c3.57-.079 7.14-.147 10.709-.215q3.91-.08 7.821-.167l2.466-.04c3.707.264 3.707.264 6.804-1.241.123-1.871.178-3.747.205-5.621l.06-3.64.051-3.962.063-4.031q.082-5.315.153-10.628.077-5.42.161-10.839.162-10.64.307-21.279l3.716-.028c4.546-.04 9.09-.106 13.636-.18q2.952-.042 5.905-.063a774 774 0 0 0 8.481-.12l2.671-.003 2.487-.06 2.187-.027c2.067-.393 2.067-.393 3.646-2.198 1.562-2.853 1.667-4.76 1.703-8.008l.06-3.457.02-3.715.054-3.817q.066-5.01.104-10.022c.03-3.412.076-6.824.121-10.236q.126-10.032.209-20.066l3.64-.06c4.447-.076 8.893-.165 13.34-.257q2.89-.058 5.78-.105c2.765-.045 5.53-.103 8.295-.164l2.62-.035c4.643.094 4.643.094 8.325-2.379.326-2.77.326-2.77.303-6.054l.05-3.853.026-4.183q.024-2.138.051-4.274c.046-3.756.08-7.511.113-11.266.051-6.008.117-12.016.188-18.024q.033-3.15.055-6.3l.04-3.862.03-3.407C420 280 420 280 421 277a71 71 0 0 1 7.086-2.672l2.195-.737c2.362-.791 4.728-1.566 7.094-2.341a3906 3906 0 0 0 7.261-2.43q2.39-.803 4.783-1.601a470 470 0 0 0 19.457-6.988c4.012-1.521 8.051-2.835 12.16-4.075 6.884-2.091 13.65-4.473 20.42-6.901 14.766-5.292 29.605-10.336 44.501-15.245l4.29-1.416 2.05-.676a330 330 0 0 0 14.586-5.236C569 226 569 226 572 226"/><path fill="#157de3" d="M118 356c21.964 0 43.381 2.217 65 6l3.165.542C224.98 369.276 272.785 378.856 306 401c.36 1.949.36 1.949.34 4.358v2.73l-.047 2.951-.013 3.018c-.017 3.19-.054 6.379-.092 9.568q-.024 3.238-.042 6.477-.05 7.95-.146 15.898l-3.732.06c-4.559.076-9.117.165-13.675.257q-2.962.058-5.925.105c-2.835.045-5.67.103-8.504.164l-2.686.035-2.487.06-2.194.04c-2.049.137-2.049.137-3.797 2.279-.332 2.507-.332 2.507-.319 5.46l-.06 3.457-.035 3.747-.059 3.825c-.05 3.357-.09 6.714-.128 10.071-.04 3.426-.091 6.85-.141 10.276Q262.115 495.918 262 506c-4.639.83-8.91 1.08-13.629.992l-4.385-.05c-2.28-.032-4.56-.067-6.84-.113a676 676 0 0 0-6.65-.087l-3.994-.067c-3.83.355-5.497.975-8.502 3.325-.76 2.501-.76 2.501-.66 5.39l-.059 3.336.012 3.598-.046 3.687c-.043 3.892-.052 7.784-.06 11.677q-.034 3.954-.076 7.908c-.063 6.468-.097 12.936-.111 19.404-5.238.089-10.252-.023-15.441-.84l-3.522-.533-7.117-1.117c-24.098-3.647-48.638-2.982-72.92-3.51z"/><path fill="#e1ecf9" d="M226 220c6 2 6 2 8.156 2.73 5.795 1.955 11.628 3.669 17.531 5.27 3.313 1 3.313 1 5.313 2.063 2.188 1.146 2.188 1.146 5.625 1.437C266 232 266 232 268 234q3.498.517 7 1 2.009.983 4 2 2.455.797 4.938 1.5c2.618.76 5.105 1.518 7.625 2.563 3.057 1.176 6.138 1.76 9.351 2.375C303 244 303 244 306 246c1.325.365 2.66.694 4 1 2.676.871 5.34 1.772 8 2.691 5.118 1.746 10.272 3.226 15.496 4.621 2.874.79 5.683 1.726 8.504 2.688l3.5 1c4.055 1.159 8.034 2.399 11.938 4 3.137 1.224 6.316 2.104 9.562 3l7 2 3.625 1c2.903.86 5.615 1.765 8.375 3l2.616.908C391 274 391 274 391.445 276.082c.153 2.831.142 5.622.078 8.457l-.014 3.141c-.021 3.316-.078 6.63-.134 9.945q-.024 3.363-.043 6.727c-.034 4.09-.069 8.179-.14 12.268l-.038 2.496C391 321 391 321 390 322c-3.018.076-6.014.09-9.031.063l-2.746-.012c-3.895-.016-7.79-.045-11.685-.072q-4.254-.025-8.507-.041l-2.692-.026A216 216 0 0 0 349 322c-1.276 1.052-1.276 1.052-1.12 3.436l.006 3.277v3.7l.016 4.028.005 4.099q.006 5.403.024 10.806.014 5.51.02 11.02.016 10.816.049 21.634c-3.51-1.15-6.843-2.3-10.125-4l-1.945-1-1.93-1q-1.999-1.003-4-2l-3.5-1.75-2.102-1.043a346 346 0 0 1-5.234-2.695c-5.588-2.895-10.884-5.273-17.008-6.774-2.476-.848-4.115-2.123-6.156-3.738a93 93 0 0 0-4-1 904 904 0 0 1-5.145-2.246c-2.096-.89-2.096-.89-5.355-1.754-3.669-1.048-7.006-2.475-10.5-4a505 505 0 0 0-6-2l-2.312-.937c-7.259-2.87-14.75-4.96-22.258-7.063l-3.555-1-3.57-1c-2.855-.864-5.548-1.873-8.305-3q-.035-22.466-.052-44.93-.007-10.431-.023-20.861-.016-10.057-.02-20.113-.003-3.846-.01-7.693-.01-5.366-.009-10.733l-.01-3.248.004-2.936-.003-2.567C225 221 225 221 226 220"/><path fill="#1478df" d="m725.438 383.867 3.21-.004 3.352.012 3.352-.012 3.21.004 2.942.004C744 384 744 384 747 385v243c-3.951.988-5.787.917-9.707.293l-3.432-.526-3.673-.58c-12.712-1.91-25.37-3.28-38.188-4.187l-2.266-.175C614.351 617.03 530.162 630.12 461 661q-4.072 1.813-8.156 3.602a648 648 0 0 0-5.726 2.54l-2.653 1.163c-.788.35-1.576.7-2.387 1.062C440 670 440 670 437 669c5.81-4.462 11.775-8.633 17.875-12.687l2.768-1.843c8.016-5.304 16.174-10.339 24.414-15.285a227 227 0 0 0 5.142-3.255C516.615 616.934 551.331 605.743 585 597l3.406-.902c26.649-6.627 54.054-8.264 81.407-8.285l2.271-.004c8.876.002 17.667.277 26.519.967 5.448.36 10.942.524 16.397.224 2.006-2.006 1.155-6.078 1.158-8.827l.015-2.515c.016-2.802.024-5.604.032-8.406l.03-6q.04-8.173.068-16.345.035-8.53.076-17.06.074-16.167.138-32.332.076-18.399.16-36.797.17-37.86.323-75.718c3.079-1.026 5.213-1.13 8.438-1.133"/><path fill="#1273da" d="m62.188 383.867 3.804-.004 1.991.007q3.013.005 6.025-.007l3.805.004 3.519.004C84 384 84 384 85 385c.106 2.613.146 5.2.145 7.813l.01 2.51q.015 4.197.019 8.394l.02 5.99q.022 6.466.036 12.932c.015 6.81.04 13.62.065 20.43q.105 29.052.182 58.104.042 16.033.106 32.066.04 10.164.056 20.327.016 6.314.047 12.627.01 2.937.012 5.875c0 2.664.014 5.328.03 7.992l-.008 2.373c-.108 4.244-.108 4.244 2.28 7.567 2.82.09 2.82.09 6.14-.242l3.889-.294 2.081-.169c56.791-4.52 115.064 1.396 167.861 23.847 2.31.977 4.628 1.928 6.947 2.881A341 341 0 0 1 310 633l2.382 1.32c14.763 8.235 28.769 17.474 42.555 27.242l1.738 1.23c2.65 1.901 5.117 3.8 7.325 6.208-9.582-2.57-18.727-6.29-27.82-10.219-17.573-7.582-35.878-13.069-54.338-18.012a486 486 0 0 1-7.518-2.105c-63.934-18.092-132.891-20.78-198.478-11.985-6.684.883-13.102 1.543-19.846 1.321-1.134-2.268-1.125-3.49-1.126-6.007l-.008-2.554.007-2.822-.005-2.985c-.004-3.322 0-6.644.003-9.966l-.006-7.12q-.005-8.683 0-17.365a19833 19833 0 0 0 0-20.205q-.004-19.11.006-38.218.005-16.413-.001-32.826a57415 57415 0 0 1-.004-42.14v-2.016q.002-7.05-.002-14.1-.004-9.478.005-18.957l-.002-6.98q-.002-4.74.006-9.483l-.007-2.829c.023-7.32.085-7.553 7.322-7.56"/><path fill="#1868c5" d="m432 275-1.715.84-2.223 1.098-2.214 1.09c-1.81.836-1.81.836-2.848 1.972a119 119 0 0 0-.018 5.91l.059 3.833.037 2.062c.06 3.596.091 7.193.127 10.789.048 4.58.105 9.16.193 13.74.07 3.697.11 7.393.132 11.09q.02 2.114.074 4.225c.27 11.018.27 11.018-1.9 14.328-4.226 3.642-8.365 4.074-13.704 4.023-2.693-.205-5.355-.48-8.031-.844L398 349l-1 1c-2.636.1-5.24.139-7.875.125l-2.223.012c-3.226-.006-5.82-.11-8.902-1.137l.02 2.182q.09 10.174.135 20.35c.016 3.487.037 6.974.071 10.461.04 4.01.054 8.018.067 12.027.015 1.253.03 2.506.047 3.797v3.518l.02 3.102C378 407 378 407 376.68 408.811c-4.447 3.147-11.116 2.298-16.328 2.252l-2.116-.012q-3.305-.019-6.611-.051-4.386-.04-8.773-.062l-3.912-.036c-2.829-.24-2.829-.24-3.94 1.098a96 96 0 0 0-.142 5.267l-.021 3.409-.013 3.715-.072 7.714c-.036 4.074-.066 8.146-.078 12.22-.012 3.918-.056 7.835-.1 11.753l.006 3.69-.05 3.448-.018 3.026c-.644 3.467-2.154 5.194-4.512 7.758l-2-1a220 220 0 0 0-8.07-.316l-2.413-.063q-3.821-.098-7.642-.183l-5.176-.131q-6.35-.161-12.699-.307v-1l3.472-.076q6.355-.142 12.708-.296 2.755-.065 5.51-.125 3.95-.088 7.9-.187l2.503-.05c3.762.256 3.762.256 6.907-1.266.123-1.871.178-3.747.205-5.621l.06-3.64.051-3.962.063-4.031q.082-5.315.153-10.628.077-5.42.161-10.839.162-10.64.307-21.279l3.716-.028c4.546-.04 9.09-.106 13.636-.18q2.952-.042 5.905-.063a774 774 0 0 0 8.481-.12l2.671-.003 2.487-.06 2.187-.027c2.067-.393 2.067-.393 3.646-2.198 1.562-2.853 1.667-4.76 1.703-8.008l.06-3.457.02-3.715.054-3.817q.066-5.01.104-10.022c.03-3.412.076-6.824.121-10.236q.126-10.032.209-20.066l3.64-.06c4.447-.076 8.893-.165 13.34-.257q2.89-.058 5.78-.105c2.765-.045 5.53-.103 8.295-.164l2.62-.035c4.643.094 4.643.094 8.325-2.379.326-2.77.326-2.77.303-6.054l.05-3.853.026-4.183q.024-2.138.051-4.274c.046-3.756.08-7.511.113-11.266.051-6.008.117-12.016.188-18.024q.033-3.15.055-6.3l.04-3.862.03-3.407C420 280 420 280 421 277c1.742-.984 1.742-.984 3.875-1.75l2.117-.797C429 274 429 274 432 275"/><path fill="#227ad2" d="M717 385h1q.035 40.263.052 80.525.007 18.694.023 37.387.015 16.287.02 32.573 0 8.63.01 17.259.01 8.112.008 16.224 0 2.987.006 5.973.006 4.059.001 8.118l.01 2.42c-.016 5.407-.016 5.407-1.13 6.521-1.49.1-2.986.13-4.48.133l-2.78.004-2.928-.012-2.869.012-2.798-.004-2.552-.004C696 592 696 592 693.257 591.5c-4.193-.644-8.276-.643-12.51-.633l-2.716-.003q-2.85 0-5.702.006-4.245.005-8.491-.007c-9.4-.004-18.779.146-28.17.586l-2.54.12c-13.709.134-13.709.134-26.128 4.431-2.322.402-4.659.727-7 1-6.936.94-13.451 2.648-20.187 4.5l-2.522.684-2.396.66-2.193.6c-1.715.418-1.715.418-2.702 1.556a92 92 0 0 1-5.062.063l-2.786-.028L560 605c2.769-1.846 4.507-2.556 7.648-3.402l2.775-.755 2.952-.78 3.044-.813q4.288-1.134 8.581-2.25l3.465-.918c26.631-6.612 54.014-8.248 81.347-8.27l2.272-.003c8.876.002 17.667.277 26.519.967 5.448.36 10.942.524 16.397.224 2.006-2.006 1.155-6.078 1.158-8.827l.015-2.515q.022-4.203.032-8.406l.03-6q.04-8.173.068-16.345.035-8.53.076-17.06.074-16.167.138-32.332.076-18.399.16-36.797.17-37.86.323-75.718"/><path fill="#1d77d2" d="M683 356v203h-51c7.439-3.72 13.721-4.59 22-4l2 1c2.615.099 5.198.139 7.813.125l2.158.012c5.346-.01 9.874-.848 15.029-2.137V359c-17.282.609-17.282.609-33.96 2.59-4.685.632-9.324.583-14.04.41v-1c34.274-5 34.274-5 50-5"/><path fill="#227ad2" d="M118 356c8.327 0 16.36.142 24.625.75l3.476.253c12.402.99 24.643 2.897 36.899 4.997-3.763 2.52-6.429 1.89-10.766 1.102l-4.105-.705-2.168-.384c-14.744-2.589-28.964-3.722-43.961-3.013-1.679 5.108-2.284 9.667-2.24 15.055l-.006 2.37c-.003 2.603.008 5.207.019 7.811v5.619c-.002 5.074.01 10.147.024 15.221.013 5.307.014 10.613.016 15.92q.011 15.065.043 30.13c.022 11.437.033 22.874.043 34.31q.032 35.282.101 70.564l2.548-.016q4.777-.025 9.555-.039 2.05-.008 4.099-.02c8.987-.057 17.85.228 26.798 1.075l-1 2h-44z"/><path fill="#1f77cf" d="m305 442 1 4-3.732.06c-4.559.076-9.117.165-13.675.257q-2.962.058-5.925.105c-2.835.045-5.67.103-8.504.164l-2.686.035-2.487.06-2.194.04c-2.049.137-2.049.137-3.797 2.279-.332 2.507-.332 2.507-.319 5.46l-.06 3.457-.035 3.747-.059 3.825c-.05 3.357-.09 6.714-.128 10.071-.04 3.426-.091 6.85-.141 10.276Q262.115 495.918 262 506c-4.639.83-8.91 1.08-13.629.992l-4.385-.05c-2.28-.032-4.56-.067-6.84-.113a676 676 0 0 0-6.65-.087l-3.994-.067c-3.83.355-5.497.975-8.502 3.325-.76 2.501-.76 2.501-.66 5.39l-.059 3.336.012 3.598-.046 3.687c-.043 3.892-.052 7.784-.06 11.677q-.034 3.954-.076 7.908c-.063 6.468-.097 12.936-.111 19.404-7.968.13-15.552-.73-23.437-1.875l-3.874-.527-3.685-.528-3.35-.476C180 561 180 561 178 559q3.626.212 7.25.438l2.066.119c5.232.33 5.232.33 7.664.94 3.308.824 6.691.92 10.083 1.128l2.181.156c3.256.206 5.63.26 8.756-.781l-.007-1.954q-.032-10.05-.048-20.098a5201 5201 0 0 0-.02-7.505 4838 4838 0 0 1-.023-10.775l-.015-3.4v-3.154l-.007-2.78C216 509 216 509 217 506c2.731-.91 4.299-1.122 7.104-1.114h2.487l2.67.016 2.746.005c2.893.005 5.787.018 8.68.03q2.943.009 5.885.014 7.215.017 14.428.049l-.092-2.405c-1.003-26.738-1.003-26.738-1.096-40.033l-.039-2.645c-.007-5.026.486-9.183 2.227-13.917 2-2 2-2 5.99-2.135q2.588.064 5.174.158l2.75.076c2.903.083 5.807.18 8.711.276l5.898.172q7.24.212 14.477.453z"/><path fill="#2175ce" d="M56 384q5.955-.037 11.908-.055 2.026-.008 4.054-.02 2.907-.017 5.815-.023l3.54-.016C84 384 84 384 85 385c.106 2.613.146 5.2.145 7.813l.01 2.51q.015 4.197.019 8.394l.02 5.99q.022 6.466.036 12.932c.015 6.81.04 13.62.065 20.43q.105 29.052.182 58.104.042 16.033.106 32.066.04 10.164.056 20.327.016 6.314.047 12.627.01 2.937.012 5.875c0 2.664.014 5.328.03 7.992l-.008 2.373c-.108 4.244-.108 4.244 2.28 7.567 3.583.167 3.583.167 7 0-2 2-2 2-4.164 2.195l-2.461-.07-2.477-.055L84 592c-1.099-4.424-1.137-8.742-1.12-13.27l-.003-2.513q0-4.164.01-8.328l-.001-5.972q.001-8.108.013-16.214c.006-5.648.006-11.296.008-16.944q.005-16.042.021-32.086.015-18.265.022-36.53.016-37.57.05-75.143H56z"/><path fill="#1667c7" d="M288 472h1q.141 11.46.207 22.922c.021 3.549.05 7.096.095 10.644.052 4.078.07 8.156.089 12.235l.062 3.864.001 3.578.027 3.156C289 531 289 531 287.229 532.84c-2.375 1.237-3.701 1.527-6.355 1.502l-2.426-.001-2.589-.047-2.673-.013c-2.812-.017-5.624-.054-8.436-.092q-2.863-.024-5.727-.042c-4.675-.03-9.348-.089-14.023-.146l1 36 6 3 1 2q-2.22-.463-4.437-.937l-2.497-.528C244 573 244 573 243 572a234 234 0 0 1-.098-8.629l.005-2.619c.005-2.771.018-5.543.03-8.314l.014-5.624q.017-6.907.049-13.814c4.145-1.009 7.984-1.088 12.242-1.027l4.23.037q3.301.036 6.603.086c2.139.03 4.278.048 6.417.064l3.855.051c4.278-.113 4.278-.113 10.653-2.211z"/><path fill="#1c72ce" d="m500 629 2 1a300 300 0 0 1-3.312 2.5l-1.864 1.406C495 635 495 635 492 635l-1 3c-2.18 1.063-2.18 1.063-4.875 2-3.553 1.243-5.502 2.362-8.125 5h-3l-1 3c-1.855 1.246-1.855 1.246-4.187 2.438A104 104 0 0 0 459 657c2.876 0 5.196-.413 8-1q2.999-.51 6-1c-1.535 3.07-3.925 3.322-7.082 4.531l-1.85.717q-2.938 1.133-5.88 2.252-2.925 1.124-5.849 2.252a1778 1778 0 0 1-5.33 2.043c-2.927 1.101-2.927 1.101-5.227 2.426C440 670 440 670 437 669c5.81-4.462 11.775-8.633 17.875-12.687l2.768-1.843c7.988-5.285 16.117-10.31 24.326-15.241a523 523 0 0 0 5.933-3.65l1.82-1.134q2.389-1.49 4.774-2.984C497 630 497 630 500 629"/><path fill="#1a70cf" d="m112.816 618.88 3.815.006h2.099c2.3 0 4.6.009 6.899.016l4.771.005q6.291.006 12.582.024 6.414.014 12.829.02 12.595.016 25.189.049v2h7v2l-2.325-.092A1048 1048 0 0 0 102 623l1-3c1.454.03 1.454.03 2.937.063 3.467-.071 3.503-1.04 6.879-1.183"/><path fill="#1865c0" d="M571 227c-1.687 2-1.687 2-4 4a99 99 0 0 1-5 0c-2.117.563-4.15 1.285-6.215 2.016-2.742.969-5.5 1.878-8.265 2.78a283 283 0 0 0-21.965 8.235c-5.233 2.165-10.428 3.83-15.907 5.258-4.998 1.342-9.868 3.069-14.734 4.824l-3.226 1.137-2.989 1.078c-2.827.704-3.985.475-6.699-.328l2.806-.955a8261 8261 0 0 0 64.3-22.194l2.68-.937q2.475-.865 4.949-1.733 2.162-.756 4.328-1.505a379 379 0 0 0 5.353-1.927C569 226 569 226 571 227"/><path fill="#1f76d2" d="m591.45 623.902 2.568.01 2.67.025 2.705.014q3.303.018 6.607.049v1l-1.866.196C578.028 627.995 552.57 633.12 527 639v-3l1.972-.443q4.42-.995 8.84-1.995l3.104-.697 2.979-.674 2.745-.618c2.488-.57 2.488-.57 5.36-1.573a245 245 0 0 1 7.688-.562l2.126-.131q2.593-.158 5.186-.307v-2c4.582-1.351 9.262-1.417 14.004-1.719 3.656-.343 6.736-1.404 10.445-1.379"/><path fill="#176ecc" d="M336 650c4.227 1.477 7.54 3.606 11.188 6.188l1.703 1.198q1.722 1.213 3.44 2.431c2.485 1.761 4.984 3.502 7.481 5.245q2.096 1.469 4.188 2.938c-2 1-2 1-4.196.35l-2.714-1.08-3.002-1.186-3.15-1.271-3.069-1.213A397 397 0 0 1 330 656v-1c6.75-.125 6.75-.125 9 1v-3h-3z"/><path fill="#217ad3" d="M549 386c-2.502 2.285-4.874 3.37-8.055 4.36-4.987 1.617-9.802 3.544-14.633 5.577l-2.47 1.014c-4.655 1.953-8.672 4.167-12.842 7.049-2.02.871-2.02.871-3.812 1.438-3.787 1.336-7.129 3.096-10.606 5.093-4.27 2.429-8.621 4.708-12.957 7.016-2.478 1.214-2.478 1.214-3.625 2.453-1.666.04-3.334.043-5 0 3.624-3.624 8.509-5.6 13-8l3.29-1.82c10.068-5.543 20.462-10.281 30.958-14.953q4.015-1.793 8.022-3.606l4.855-2.183 2.241-1.014c8.709-3.887 8.709-3.887 11.634-2.424"/><path fill="#1d76d3" d="m698 620 2 3-1.927-.092c-21.595-1-43.381-1.933-64.956-.13-5.038.36-10.07.307-15.117.222l1-3q13.236-.233 26.471-.443 6.148-.097 12.295-.205 5.942-.104 11.885-.195 2.257-.036 4.513-.078c19.335-.356 19.335-.356 23.836.921"/><path fill="#1d73ce" d="m445 437 1 3c-2 2-2 2-4 2.438-2.386.437-2.386.437-4 3.562l-3 .438-3 .562c-1.183 1.866-1.183 1.866-2 4-2.603 2.351-3.421 3-7 3l-1 3a122 122 0 0 1-4 2c-2.805 2.24-5.52 4.57-8.246 6.906-2.584 1.965-4.71 3.048-7.754 4.094-1.34.652-2.677 1.314-4 2 3.484-5.005 7.929-8.168 12.813-11.687l2.552-1.86C420.773 453.09 428.34 447.996 436 443q2.721-1.809 5.438-3.625z"/><path fill="#2179d1" d="m600 369-1 2c-2.606.754-5.17 1.408-7.812 2-4.285.975-8.295 1.9-12.188 4-1.995.483-3.99.964-5.988 1.43-2.253.568-2.253.568-5.074 2.132-3.348 1.638-6.262 1.962-9.938 2.438l-2.125 1.063c-2.383 1.191-4.247 1.083-6.875.937 4.04-2.693 8.325-4.102 12.875-5.75l2.937-1.064a356 356 0 0 1 20.75-6.686l2.646-.772c4.011-1.125 7.582-2.072 11.792-1.728"/><path fill="#1f76d2" d="M598 563v1l-2.177.471c-12.817 2.786-25.608 5.585-38.26 9.055C552.175 575 552.175 575 550 575l1-4 2.922-.367 3.828-.508 3.797-.492c3.281-.43 3.281-.43 5.343-1.606 2.446-1.19 4.642-1.632 7.32-2.097l3.024-.528 3.141-.527c1.029-.182 2.057-.364 3.117-.55 4.88-.837 9.536-1.581 14.508-1.325"/><path fill="#1d73cf" d="m464 617-1.809 1.11c-6.936 4.328-13.616 8.954-20.263 13.713-3.567 2.547-7.12 4.997-10.928 7.177.313-1.937.313-1.937 1-4l3-1 1-2 3-1 1-2h2v-2l2.145-.746c3.222-1.415 5.732-3.204 8.543-5.317 6.993-5.233 6.993-5.233 11.312-3.937"/><path fill="#1b71cd" d="M525 639c-3.652 2.025-7.53 3.203-11.504 4.418l-2.18.671q-2.275.697-4.552 1.39c-2.325.708-4.645 1.43-6.965 2.152l-4.428 1.35-2.102.659c-4.926 1.474-4.926 1.474-8.269.36 3.719-2.445 7.148-3.782 11.438-4.937 3.795-1.033 7.579-2.068 11.343-3.208l3.656-1.105 3.31-1.016c3.51-.792 6.665-.861 10.253-.734"/><path fill="#2273cc" d="m416 648 3 1a3875 3875 0 0 1-6.312 5.875l-1.803 1.684-1.748 1.62-1.603 1.492c-3.82 3.31-3.82 3.31-6.846 3.391-4.033-1.594-6.111-4.67-8.688-8.062l5 2v2c3.378.845 5.675 1.108 9 0l.227-1.762c1.043-3.019 2.634-4.118 5.148-6.05l2.398-1.895z"/><path fill="#1464c0" d="M552 352a59 59 0 0 1-8.309 3.55c-.823.285-1.647.57-2.496.862l-2.633.9c-7.16 2.465-14.222 5.057-21.226 7.938C515 366 515 366 513 365c2.292-2.65 4.064-3.522 7.438-4.375 4.068-1.124 7.869-2.525 11.75-4.187 6.827-2.9 12.254-4.746 19.812-4.438"/><path fill="#1564bf" d="M572 320h1v27l-16 4v-3l4 1 1-3 8-1z"/><path fill="#155eb4" d="M420 280h1v66l-4 1 2-3c.33-2.891.33-2.891.319-6.216l.06-3.882.035-4.195q.028-2.145.059-4.292c.051-3.763.09-7.526.128-11.289.04-3.84.091-7.682.141-11.522Q419.886 291.3 420 280"/><path fill="#1564c0" d="M479 259c-3.854 3.548-6.806 4.677-11.937 5.563-4.918.861-8.627 2.186-13.063 4.437-2.555.512-2.555.512-4.875.688l-2.367.199L445 270c3.664-3.664 9.08-4.762 13.894-6.478 1.97-.706 3.935-1.429 5.899-2.153l3.762-1.35c1.14-.41 2.278-.822 3.452-1.246 2.918-.754 4.236-.854 6.993.227"/><path fill="#1d72d0" d="m240.047 628.39 3.703.86c6.714 1.5 13.368 2.466 20.203 3.223C267 633 267 633 270 635c1.655.385 3.322.728 5 1v2c-8.922-1.576-17.806-3.337-26.687-5.125l-4.186-.84Q239.063 631.02 234 630c3-2 3-2 6.047-1.61"/><path fill="#1864c0" d="m402 441 2 1-1.19 1.266q-2.719 2.897-5.435 5.796l-1.871 1.99A342 342 0 0 0 384 464l-1-2 1-3h3l.125-2.125c1.203-3.954 3.627-6.368 6.875-8.875h2l.75-1.812c1.414-2.474 2.9-3.622 5.25-5.188"/><path fill="#1663be" d="M324 607c4.972 1.492 9.418 3.605 14 6v2l2.625.75c3.586 1.328 6.338 2.936 9.375 5.25v2l2.188.688c3.344 1.56 5.328 3.615 7.812 6.312-4.466-1.54-8.14-3.966-12-6.625a365 365 0 0 0-18.39-11.684c-2.2-1.425-3.875-2.748-5.61-4.691"/><path fill="#1e77d1" d="m560 606-2.266.988-2.984 1.324-2.953 1.301c-2.785 1.268-2.785 1.268-4.922 3.024-2.461 1.79-4.75 1.788-7.719 2.043-2.334.346-4.23 1.043-6.406 1.945-3.7 1.356-4.301 1.52-7.75.375 30.587-12.47 30.587-12.47 35-11"/><path fill="#1764c0" d="M391 476c0 3 0 3-1.68 4.824l-2.195 1.863-2.18 1.887C383 486 383 486 381 486c-.26.592-.52 1.183-.79 1.793-1.287 2.347-2.582 3.757-4.585 5.52l-1.773 1.613C372 496 372 496 369.773 495.668L368 495c7.32-6.841 14.995-12.99 23-19"/><path fill="#1966bf" d="m380 464 3 1c-3.523 5.492-7.537 10.477-11.666 15.521-2.732 3.37-5.222 6.671-7.334 10.479l-1-3a86 86 0 0 1 4.313-7.187l1.263-1.983c1.08-1.652 2.246-3.246 3.424-4.83h2l1-3h2l.938-2.937C379 465 379 465 380 464"/><path fill="#1a5fb9" d="M243 533h1v37l7 2 2 3q-2.22-.463-4.437-.937l-2.497-.528C244 573 244 573 243 572a234 234 0 0 1-.098-8.629l.005-2.619c.005-2.771.018-5.543.03-8.314l.014-5.624q.017-6.907.049-13.814"/><path fill="#1563be" d="m477.12 383.43 1.88.57-1.465.946-6.66 4.304-2.305 1.488-2.265 1.465-2.224 1.436a274 274 0 0 0-5.51 3.72C456 399 456 399 454 399c1.843-4.86 5.29-6.202 9.812-8.312 3.472-1.839 6.265-4.054 9.258-6.579C475 383 475 383 477.12 383.431"/><path fill="#1462be" d="M360 630c3.86.522 5.31 1.31 8 4 2.606.722 2.606.722 5 1v4h3v2h2v2l3 1v2c-3.918-1.71-7.15-4.269-10.5-6.875l-1.723-1.316c-3.14-2.426-6.046-4.93-8.777-7.809"/><path fill="#217ad2" d="M183 363c6.994.564 13.761 1.624 20.625 3.063l2.754.564q3.312.679 6.621 1.373v1c-9.802-.438-19.524-1.32-29-4z"/><path fill="#1d71cc" d="M295 626c6.183 1.645 11.397 4.926 16.875 8.125l2.953 1.707q3.59 2.077 7.172 4.168c-3 1-3 1-4.898.243l-2.122-1.227-2.35-1.336-2.442-1.43q-2.385-1.37-4.77-2.734l-2.284-1.315c-2.668-1.502-5.378-2.87-8.134-4.201z"/><path fill="#1763bc" d="M428 416c2.063.438 2.063.438 4 1a1865 1865 0 0 1-7.375 6.5l-2.117 1.879-2.031 1.777-1.873 1.65C417 430 417 430 415 430v-3h2l1-3c4.333-3 4.333-3 7-3l.938-1.937C427 417 427 417 428 416"/><path fill="#1f73cb" d="M524 618c-1 3-1 3-3.836 4.535l-3.539 1.528c-3.434 1.495-6.506 2.858-9.625 4.937-2.687.125-2.687.125-5 0 2.13-2.332 4.086-3.709 6.941-5.043l2.268-1.064 2.353-1.08 2.366-1.116c5.8-2.697 5.8-2.697 8.072-2.697"/><path fill="#1f7bd3" d="M633 362c-1.57 1.845-2.514 2.888-4.91 3.441l-2.153.122c-4.361.327-8.435 1.172-12.675 2.23-2.727.25-3.901-.506-6.262-1.793q5.091-1.009 10.188-2l2.908-.578 2.822-.547 2.587-.508c2.535-.373 4.936-.431 7.495-.367"/><path fill="#2177d2" d="M502 595a2372 2372 0 0 1-8.125 4.375l-2.305 1.25c-4.116 2.2-8.065 4.065-12.57 5.375l2-3h3v-2l6-1v-2a205 205 0 0 1 3.75-2.062l2.11-1.16c2.534-.921 3.612-.521 6.14.222"/><path fill="#1d6dc7" d="M279 639c5.256-.181 9.06.024 14 2l2.594 1.023q3.71 1.471 7.406 2.977c-3.375 1.142-5.394.844-8.766-.215l-2.695-.83-2.789-.893-2.836-.88A941 941 0 0 1 279 640z"/><path fill="#217cd3" d="M246 378c4.725.632 8.906 1.918 13.375 3.563l1.941.708q2.344.86 4.684 1.729c-6.655 2.218-13.997-2.137-20-5z"/><path fill="#1b64c0" d="m392 655 5 2v2c3.695.95 6.305.95 10 0-1.687 2.063-1.687 2.063-4 4-2.375.188-2.375.188-5-1-2.201-2.186-4.125-4.532-6-7"/><path fill="#1b73cf" d="M477 649c3.375.547 5.082 1.055 8 3a211 211 0 0 1-3.75 1.563l-2.11.878c-2.44.637-3.78.361-6.14-.441z"/><path fill="#1664c1" d="M273 582c4.86.477 7.917 1.383 12 4 1.985.711 3.982 1.39 6 2v2c-3.968-.792-7.564-2.448-11.25-4.062l-1.969-.854A1857 1857 0 0 1 273 583z"/><path fill="#1e75d2" d="M534 581q-3.432 1.544-6.875 3.063l-1.973.892c-1.692.742-3.42 1.4-5.152 2.045l-2-1c4.75-4.317 9.614-6.942 16-5"/><path fill="#1867c5" d="M253 575c6.153.57 12.295 1.519 18 4l2 3c-4.725-.632-8.906-1.918-13.375-3.562l-1.941-.71Q255.34 576.87 253 576z"/><path fill="#1d76d4" d="m610.688 559.938 2.126.013q2.594.02 5.186.049v1q-3.061.508-6.125 1l-3.445.563c-3.191.407-6.218.515-9.43.437 2.155-4.31 7.481-3.114 11.688-3.062"/><path fill="#1362c1" d="M508.063 366.938 511 367c-3.802 3.306-9.836 7-15 7v-3l1.715-.621 2.223-.817 2.214-.808c4.375-1.785 4.375-1.785 5.91-1.817"/><path fill="#023c91" d="m361 494 3 2c-1.285 2.867-2.571 4.976-5 7h-2c.53-3.821 1.497-6.062 4-9"/><path fill="#1e7ad1" d="M470 423c-1.08 3.132-2.01 4.006-4.875 5.813-3.27 1.242-3.974 1.19-7.125.187a984 984 0 0 1 4.875-3l2.742-1.687C468 423 468 423 470 423"/><path fill="#1863be" d="m441 406 3 1-11 9-1-3q2.142-1.798 4.313-3.562l2.425-2.004z"/><path fill="#1765c1" d="m411 431 3 1-9 9-1-3z"/><path fill="#1d74cc" d="m428 639 3 1a986 986 0 0 1-4.875 4l-2.742 2.25C421 648 421 648 419 648l1-3h2v-2h3l1-3z"/><path fill="#1e70ca" d="M197 594c5.192-.212 9.127.409 14 2v1c-1.77.081-3.541.14-5.312.188l-2.989.105C200 597 200 597 198.145 595.488z"/><path fill="#0a57b4" d="M364 497c0 3 0 3-1.812 5.188C360 504 360 504 357 504v2h-3v-3h2l1-2v2z"/><path fill="#cfe0f4" d="M355 84c-4.563 3.533-8.496 3.324-14 3 4.178-3.696 8.652-4.851 14-3"/><path fill="#2178cf" d="M214 369c5.239.551 9.974 1.43 15 3v1l-13-1v-2z"/><path fill="#1863c0" d="m384 648 6 1v2h2l-1 4a858 858 0 0 1-3.5-2.937l-1.969-1.653L384 649z"/><path fill="#1e73d1" d="m478 608-10 6v-3c5.149-4.213 5.149-4.213 10-3"/><path fill="#1265c1" d="M366 496h2c-.35 3.242-.562 4.615-3.062 6.813L363 504l-1-2a125 125 0 0 1 4-6"/><path fill="#2d71c4" d="m445 663 2 1c-3.173 3.536-5.167 5.586-10 6 2.578-2.648 4.916-4.944 8-7"/><path fill="#2179d6" d="m267 385 3.875.875 2.18.492C275 387 275 387 277 389h-8z"/><path fill="#c7d8ef" d="M285 355h10l-1 5-1.687-.875c-2.398-1.166-4.829-2.159-7.313-3.125z"/><path fill="#256dc1" d="m355 662 9 6c-2 1-2 1-3.945.441l-2.18-.879-2.195-.87L354 666z"/><path fill="#1e77d1" d="m171.188 557.938 2.73.59L176 559v1h-12l-1-2c3.383-1.128 4.768-.818 8.188-.062"/><path fill="#c3d3e4" d="M605 290c2.567 3.85 1.833 5.586 1 10l-2-1c-.098-6.152-.098-6.152 0-8z"/><path fill="#1961bb" d="M361 491h2c-1.312 3.937-2.92 6.227-6 9 .526-3.788 1.381-6.172 4-9"/><path fill="#d8e6f7" d="m369 266 7 2c-1.687 1.125-1.687 1.125-4 2-2.75-.875-2.75-.875-5-2z"/><path fill="#1767c2" d="m85 588 3 2c2.332.08 4.668.088 7 0-2 2-2 2-3.945 2.195L85 592z"/><path fill="#1964c4" d="M245 570c6.875 2.75 6.875 2.75 8 5l-7-1z"/><path fill="#1463c1" d="M488 378c-4.625 4-4.625 4-8 4v-2c3.228-2.152 4.284-2.2 8-2"/></svg>